<?xml version="1.0" encoding="utf-8"?>
<!-- Generator: Adobe Illustrator 19.2.0, SVG Export Plug-In . SVG Version: 6.00 Build 0)  -->
<svg version="1.1"
	 id="Ebene_1" xmlns:cc="http://creativecommons.org/ns#" xmlns:dc="http://purl.org/dc/elements/1.1/" xmlns:rdf="http://www.w3.org/1999/02/22-rdf-syntax-ns#"
	 xmlns="http://www.w3.org/2000/svg" xmlns:xlink="http://www.w3.org/1999/xlink" x="0px" y="0px" viewBox="0 0 82.7 73.6"
	 style="enable-background:new 0 0 82.7 73.6;" xml:space="preserve">
<style type="text/css">
	.st0{fill:#119DFC;}
	.st1{enable-background:new    ;}
</style>
<g transform="translate(0,-952.36218)">
	<path class="st0" d="M30.8,952.3C30.8,952.3,30.8,952.4,30.8,952.3c-0.4,0.1-0.7,0.5-0.7,0.9c0,0,0,0.1,0,0.1
		c0.7,2.5,0.8,4.1,0.6,5.3c-0.2,1.2-0.6,1.9-1,2.8c-0.4,0.8-0.9,1.8-0.9,3.1c0,1.3,0.6,2.9,1.8,5.2c0.2,0.4,0.6,0.5,1,0.4
		s0.5-0.6,0.4-1c0,0,0-0.1-0.1-0.1c-1.2-2.2-1.6-3.6-1.6-4.6c0-1,0.3-1.6,0.7-2.4c0.4-0.8,1-1.8,1.2-3.2c0.2-1.4,0.1-3.3-0.7-6
		C31.5,952.6,31.2,952.3,30.8,952.3L30.8,952.3z M41.4,952.4c-0.4,0.1-0.6,0.5-0.5,0.9c0,0,0,0,0,0c0.7,2.5,0.8,4.1,0.6,5.3
		c-0.2,1.2-0.6,1.9-1.1,2.8s-0.9,1.8-0.8,3.1c0,1.3,0.6,2.9,1.8,5.2c0.2,0.4,0.6,0.5,1,0.4s0.5-0.6,0.4-1c0,0,0-0.1-0.1-0.1
		c-1.2-2.2-1.6-3.6-1.6-4.6c0-1,0.3-1.6,0.7-2.4c0.4-0.8,1-1.8,1.2-3.2c0.2-1.4,0.1-3.3-0.7-6c-0.1-0.4-0.4-0.6-0.8-0.6
		C41.5,952.4,41.5,952.4,41.4,952.4z M52.2,952.4c-0.4,0.1-0.6,0.5-0.5,0.9c0,0,0,0,0,0c0.7,2.5,0.8,4.1,0.6,5.3
		c-0.2,1.2-0.6,1.9-1,2.8c-0.4,0.8-0.9,1.8-0.9,3.1c0,1.3,0.6,2.9,1.8,5.2c0.2,0.4,0.7,0.5,1,0.3c0.4-0.2,0.5-0.7,0.3-1l0,0
		c-1.2-2.2-1.6-3.6-1.7-4.6c0-1,0.3-1.6,0.7-2.4c0.4-0.8,1-1.8,1.2-3.2c0.2-1.4,0.1-3.3-0.7-6c-0.1-0.4-0.4-0.6-0.8-0.6
		C52.3,952.4,52.2,952.4,52.2,952.4L52.2,952.4z M0,981.7c0,1.6,0.2,3.1,0.3,4.6c0.1,0,0.2-0.1,0.3-0.1l81.5-0.1
		c0.1,0,0.2,0,0.3,0.1c0.2-1.5,0.3-2.9,0.3-4.4H41.4C41.4,981.8,0,981.7,0,981.7z M82.1,987.6l-81.5,0.1c0,0-0.1,0-0.1,0
		c2,12.8,9.9,23.6,20.8,29.6c0.2,0.1,0.3,0.3,0.3,0.5v8.1h39.6v-8c0-0.2,0.1-0.4,0.3-0.5c10.9-6.1,18.8-16.9,20.8-29.8
		C82.2,987.7,82.1,987.7,82.1,987.6L82.1,987.6z"/>
</g>
<text transform="matrix(1 0 0 1 -8.641 101.781)" style="font-family:'HelveticaNeue-Bold'; font-size:5px;">Created by Blink@design</text>
<text transform="matrix(1 0 0 1 -8.641 106.781)" style="font-family:'HelveticaNeue-Bold'; font-size:5px;">from the Noun Project</text>
</svg>
