<?xml version="1.0"?>
<svg xmlns="http://www.w3.org/2000/svg" height="512px" viewBox="-44 0 511 511.99852" width="512px"><path d="m177.742188 167.359375c0-8.144531-6.625-14.769531-14.769532-14.769531-8.144531 0-14.769531 6.625-14.769531 14.769531s6.625 14.769531 14.769531 14.769531c8.144532 0 14.769532-6.625 14.769532-14.769531zm0 0" fill="#119dfc"/><path d="m226.976562 260.902344c-8.144531 0-14.769531 6.628906-14.769531 14.773437s6.625 14.769531 14.769531 14.769531c8.144532 0 14.773438-6.625 14.773438-14.769531s-6.628906-14.773437-14.773438-14.773437zm0 0" fill="#119dfc"/><path d="m267.324219 124.246094c-17.929688-4.03125-36.476563-6.078125-55.117188-6.078125-16.679687 0-33.277343 1.648437-49.429687 4.882812.066406 0 .128906-.003906.195312-.003906 24.433594 0 44.308594 19.878906 44.308594 44.308594 0 24.433593-19.875 44.3125-44.308594 44.3125s-44.3125-19.878907-44.3125-44.3125c0-17.867188 10.640625-33.289063 25.910156-40.292969l-84.421874 18.996094c-5.039063 1.132812-10.1875 1.730468-15.328126 1.785156l123.683594 333.742188c6.738282 18.191406 24.304688 30.414062 43.703125 30.414062 19.398438 0 36.960938-12.222656 43.703125-30.414062l123.683594-333.742188c-5.140625-.054688-10.289062-.652344-15.324219-1.785156zm-34.828125 250.496094-19.691406 19.691406c-6.964844 5.769531-13.925782 5.769531-20.890626 0-5.765624-5.765625-5.765624-15.117188 0-20.886719l19.695313-19.695313c5.769531-5.765624 15.121094-5.765624 20.886719 0 5.769531 5.769532 5.769531 15.121094 0 20.890626zm-5.519532-54.757813c-24.433593 0-44.308593-19.878906-44.308593-44.308594 0-24.433593 19.875-44.3125 44.308593-44.3125 24.433594 0 44.3125 19.878907 44.3125 44.3125 0 24.429688-19.878906 44.308594-44.3125 44.308594zm64.601563-132.335937c-6.960937 5.769531-13.925781 5.769531-20.886719 0l-19.695312-19.691407c-5.765625-5.769531-5.765625-15.121093 0-20.890625 5.769531-5.765625 15.121094-5.765625 20.890625 0l19.691406 19.695313c5.769531 5.765625 5.769531 15.121093 0 20.886719zm0 0" fill="#119dfc"/><path d="m389.894531 32.1875-109.601562-24.660156c-20.273438-4.5625-41.074219-7.039063-61.925781-7.449219-4.101563-.1054688-8.214844-.1054688-12.320313 0-20.851563.410156-41.652344 2.886719-61.925781 7.449219l-109.601563 24.660156c-20.03125 4.507812-34.019531 21.996094-34.019531 42.527344 0 10.378906 3.746094 20.558594 10.527344 28.421875 12.125 12.742187 26.335937 17.441406 42.628906 14.101562l96.949219-21.8125c20.148437-4.53125 40.875-6.800781 61.601562-6.800781 20.726563 0 41.453125 2.269531 61.601563 6.800781l96.945312 21.8125c16.296875 3.339844 30.507813-1.359375 42.632813-14.101562 6.78125-7.863281 10.527343-18.042969 10.527343-28.421875 0-20.53125-13.988281-38.019532-34.019531-42.527344zm0 0" fill="#119dfc"/></svg>
