<?xml version="1.0" encoding="utf-8"?>
<!-- Generator: Adobe Illustrator 19.2.0, SVG Export Plug-In . SVG Version: 6.00 Build 0)  -->
<svg version="1.1" id="Capa_1" xmlns="http://www.w3.org/2000/svg" xmlns:xlink="http://www.w3.org/1999/xlink" x="0px" y="0px"
	 viewBox="0 0 21.7 20.7" style="enable-background:new 0 0 21.7 20.7;" xml:space="preserve">
<style type="text/css">
	.st0{fill:#119DFC;}
</style>
<g>
	<g>
		<path class="st0" d="M2.8,20.2h3c0,0.3,0.3,0.5,0.5,0.5h6.7c0.3,0,0.5-0.2,0.5-0.5h3c0.5,0,0.9-0.4,0.9-0.9H1.9
			C1.9,19.8,2.3,20.2,2.8,20.2z"/>
		<path class="st0" d="M20.9,11c-0.8-0.6-1.8-0.6-2.5-0.5c0-0.5,0-1,0-1.5H0c0,5,0.8,8.6,5.5,9.9h7.4c1.9-0.5,3.1-1.4,4-2.6
			c1.8,0,4.7-0.7,4.8-3.2C21.7,11.9,21.3,11.3,20.9,11z M17.6,14.8c0.3-0.9,0.6-1.9,0.7-3c0.5-0.1,1.3-0.1,1.8,0.2
			c0.1,0.1,0.3,0.3,0.3,0.9C20.3,14.2,18.6,14.6,17.6,14.8z"/>
		<path class="st0" d="M7.5,8.2C7.5,8.2,11,8,9.4,5c-1.3-2.4-1-3.8,0.7-5c0,0-5.4,1.4-2.2,5.6C8.9,7.5,7.5,8.2,7.5,8.2z"/>
		<path class="st0" d="M9.9,8c0,0,2.8-0.6,1.3-2.8c-0.6-1,0.2-1.3,0.2-1.3s-1.8,0.1-1,1.6C10.9,6.7,10.7,7.4,9.9,8z"/>
	</g>
</g>
</svg>
