<?xml version="1.0" encoding="utf-8"?>
<!-- Generator: Adobe Illustrator 19.2.0, SVG Export Plug-In . SVG Version: 6.00 Build 0)  -->
<svg version="1.1" id="Ebene_1" xmlns="http://www.w3.org/2000/svg" xmlns:xlink="http://www.w3.org/1999/xlink" x="0px" y="0px"
	 viewBox="0 0 64 64.5" style="enable-background:new 0 0 64 64.5;" xml:space="preserve">
<style type="text/css">
	.st0{enable-background:new    ;}
</style>
<g>
	<path d="M35,54c-1.7,0-3,1.3-3,3s1.3,3,3,3s3-1.3,3-3S36.7,54,35,54z M35,58c-0.6,0-1-0.4-1-1s0.4-1,1-1s1,0.4,1,1S35.6,58,35,58z"
		/>
	<path d="M29,54c-1.7,0-3,1.3-3,3s1.3,3,3,3s3-1.3,3-3S30.7,54,29,54z M29,58c-0.6,0-1-0.4-1-1s0.4-1,1-1s1,0.4,1,1S29.6,58,29,58z"
		/>
	<path d="M59.7,33.3L59.4,33H57v1c0,10-4.9,13.2-7.8,13.9l1.3-10.2c0.3-2.6,1.8-4.9,3.9-6.4l1-0.7c1-0.7,1.6-1.8,1.6-3
		c0-1.3-0.7-2.5-1.9-3.2c-2.9-1.6-4.6-3.5-5.1-5.7c-0.1-0.3-0.2-0.6-0.3-0.9c5.2-0.7,6.2-4.5,6.8-7.1c0.1-0.5,0.3-1,0.4-1.4
		c0.5-1.6,1.4-2.6,2-3.1C59.6,5.7,60,4.9,60,4c0-1.6-1.3-3-3-3h-5.1c-3.4,0-6.5,1.9-8,5l-2.4,4.8C39.8,10.2,35.9,9,32,9
		s-7.8,1.2-9.5,1.8L20.1,6c-1.5-3.1-4.6-5-8-5H7C5.3,1,4,2.3,4,4c0,0.9,0.4,1.7,1.1,2.3c0.6,0.5,1.5,1.5,2,3.1
		c0.1,0.4,0.3,0.9,0.4,1.4c0.7,2.6,1.7,6.4,6.8,7.1c-0.1,0.3-0.2,0.6-0.3,0.9c-0.6,2.2-2.2,4-5.1,5.7C7.7,25.1,7,26.3,7,27.6
		c0,1.2,0.6,2.3,1.6,3l1,0.7c2.2,1.5,3.6,3.8,3.9,6.4l1.3,10.2C11.9,47.2,7,44,7,34v-1H4.6l-0.3,0.3C4.2,33.4,1,36.7,1,45
		c0,8.7,10.5,14,18,14c3,0,4.9,1.2,5.5,1.6l0.1,0.3c0.4,1.2,1.6,2.1,2.8,2.1h9.1c1.3,0,2.4-0.8,2.8-2.1l0.1-0.3
		C40.1,60.2,42,59,45,59c7.5,0,18-5.3,18-14C63,36.7,59.8,33.4,59.7,33.3z M58,4c0,0.3-0.1,0.6-0.3,0.7c-0.8,0.7-1.9,1.9-2.6,4
		c-0.2,0.5-0.3,1-0.4,1.6c-0.7,2.8-1.4,5.5-6,5.7c-0.6-0.8-1.2-1.3-1.6-1.5C47.4,8.9,53.1,4,54.3,3H57C57.6,3,58,3.4,58,4z
		 M9.4,10.3C9.2,9.7,9.1,9.2,8.9,8.7c-0.7-2.1-1.8-3.3-2.6-4C6.1,4.5,6,4.3,6,4c0-0.5,0.4-1,1-1h2.7c1.2,1,7,5.9,7.3,11.4
		c-0.4,0.3-1.1,0.8-1.6,1.5C10.8,15.7,10.1,13.1,9.4,10.3z M3,45c0-5,1.2-8,2-9.3C5.7,47.4,13.1,50,16,50c0.4,0,0.9,0,1.5,0
		c0.6,0.8,2.2,3.1,2.5,7.1c-0.3,0-0.6,0-1,0C12.5,57,3,52.3,3,45z M36.6,61h-9.1c-0.4,0-0.8-0.3-0.9-0.7l-1.4-4.1
		C25,56,25,55.7,25,55.4c0-1.3,1.1-2.4,2.4-2.4h9.1c1.3,0,2.4,1.1,2.4,2.4c0,0.3,0,0.5-0.1,0.8l-1.4,4.1C37.4,60.7,37,61,36.6,61z
		 M36.6,51h-9.1C25,51,23,53,23,55.4c0,0.5,0.1,1,0.2,1.4l0.3,1c-0.5-0.2-1-0.4-1.6-0.5c-0.1-3.7-1.3-6.3-2.2-7.7
		c1.7-0.4,3.3-1.4,3.3-3.7c0-1.8-0.9-3.1-2.4-3.7c-0.4-0.1-0.6-0.4-0.6-0.8c0-0.4,0.2-0.7,0.6-0.8c1.5-0.4,2.4-1.4,2.4-2.8
		c0-3.2-2-8.2-2.1-8.4l-1.9,0.7c0,0,1.9,4.9,1.9,7.6c0,0.2,0,0.6-1,0.8c-1.2,0.3-2,1.4-2,2.7c0,1.2,0.7,2.2,1.9,2.6
		c0.8,0.3,1.1,0.9,1.1,1.8c0,1.6-1.9,1.9-4.1,2l-1.3-10.6c-0.4-3.2-2.2-6-4.8-7.8l-1-0.7C9.3,28.6,9,28.1,9,27.6
		c0-0.6,0.3-1.1,0.9-1.4c2.7-1.5,4.5-3.2,5.5-5.2h1.5c-0.5,0.5-0.8,1.2-0.8,2c0,1.7,1.3,3,3,3c0.8,0,1.5-0.3,2-0.8V27h2v-3
		c0-2.8-2.2-5-5-5h-2c0.7-2.3,2.3-3.1,2.3-3.1l0.6-0.3V15c0-5.1-3.8-9.6-6.3-12c2.4,0.2,4.5,1.6,5.6,3.8l3.2,6.4l0.9-0.3
		c0,0,4.9-1.9,9.6-1.9s9.6,1.9,9.6,1.9l0.9,0.3l3.2-6.4c1.1-2.2,3.2-3.6,5.6-3.8C48.8,5.4,45,9.9,45,15v0.7l0.6,0.3
		c0,0,1.7,0.8,2.3,3.1h-2c-2.8,0-5,2.2-5,5v3h2v-1.8c0.5,0.5,1.2,0.8,2,0.8c1.7,0,3-1.3,3-3c0-0.8-0.3-1.5-0.8-2h1.5
		c1,2,2.8,3.7,5.5,5.2c0.5,0.3,0.8,0.8,0.8,1.4c0,0.5-0.3,1.1-0.7,1.4l-1,0.7c-2.7,1.8-4.4,4.6-4.8,7.8L47.1,48
		c-2.2-0.1-4.1-0.4-4.1-2c0-0.9,0.4-1.5,1.1-1.8c1.1-0.4,1.9-1.5,1.9-2.6c0-1.3-0.8-2.4-2-2.7c-1-0.3-1-0.7-1-0.8
		c0-2.8,1.9-7.6,1.9-7.6l-1.9-0.7C43,29.8,41,34.8,41,38c0,1.3,0.9,2.3,2.4,2.8c0.3,0.1,0.6,0.4,0.6,0.8c0,0.3-0.2,0.6-0.6,0.8
		C41.9,42.9,41,44.2,41,46c0,2.2,1.5,3.2,3.3,3.7c-0.9,1.4-2.1,4-2.2,7.7c-0.6,0.1-1.1,0.3-1.6,0.5l0.3-1c0.2-0.5,0.2-0.9,0.2-1.4
		C41,53,39,51,36.6,51z M20,23c0,0.6-0.4,1-1,1s-1-0.4-1-1s0.4-1,1-1S20,22.4,20,23z M46,23c0,0.6-0.4,1-1,1s-1-0.4-1-1s0.4-1,1-1
		S46,22.4,46,23z M45,57c-0.3,0-0.7,0-1,0c0.2-4,1.9-6.3,2.5-7.1c0.6,0,1.1,0,1.5,0c2.9,0,10.3-2.6,11-14.3c0.8,1.4,2,4.3,2,9.3
		C61,52.3,51.5,57,45,57z"/>
	<rect x="36" y="47" width="2" height="2"/>
	<rect x="26" y="47" width="2" height="2"/>
</g>
<text transform="matrix(1 0 0 1 0 79)" style="font-family:'HelveticaNeue-Bold'; font-size:5px;">Created by Eucalyp</text>
<text transform="matrix(1 0 0 1 0 84)" style="font-family:'HelveticaNeue-Bold'; font-size:5px;">from the Noun Project</text>
</svg>
